<?xml version="1.0" encoding="UTF-8" standalone="no"?>
<!DOCTYPE svg PUBLIC "-//W3C//DTD SVG 1.1//EN"
 "http://www.w3.org/Graphics/SVG/1.1/DTD/svg11.dtd">
<!-- Generated by graphviz version 2.47.0 (20210316.0004)
 -->
<!-- Title: dbml Pages: 1 -->
<svg width="2108pt" height="2846pt"
 viewBox="0.00 0.00 2107.98 2845.92" xmlns="http://www.w3.org/2000/svg" xmlns:xlink="http://www.w3.org/1999/xlink">
<g id="graph0" class="graph" transform="scale(1 1) rotate(0) translate(4 2841.92)">
<title>dbml</title>
<!-- Brand -->
<g id="Brand" class="node">
<title>Brand</title>
<ellipse fill="none" stroke="black" stroke-width="0" cx="1796.63" cy="-1351.39" rx="210.02" ry="130.22"/>
<polygon fill="#1d71b8" stroke="transparent" points="1650.63,-1381.39 1650.63,-1441.39 1943.63,-1441.39 1943.63,-1381.39 1650.63,-1381.39"/>
<polygon fill="none" stroke="#29235c" points="1650.63,-1381.39 1650.63,-1441.39 1943.63,-1441.39 1943.63,-1381.39 1650.63,-1381.39"/>
<text text-anchor="start" x="1692.2" y="-1402.59" font-family="Helvetica,sans-Serif" font-weight="bold" font-size="32.00" fill="#ffffff"> &#160;&#160;&#160;&#160;&#160;&#160;Brand &#160;&#160;&#160;&#160;&#160;&#160;</text>
<polygon fill="#e7e2dd" stroke="transparent" points="1650.63,-1321.39 1650.63,-1381.39 1943.63,-1381.39 1943.63,-1321.39 1650.63,-1321.39"/>
<polygon fill="none" stroke="#29235c" points="1650.63,-1321.39 1650.63,-1381.39 1943.63,-1381.39 1943.63,-1321.39 1650.63,-1321.39"/>
<text text-anchor="start" x="1661.63" y="-1342.59" font-family="Helvetica,sans-Serif" font-weight="bold" font-size="32.00" fill="#29235c">id</text>
<text text-anchor="start" x="1686.52" y="-1342.59" font-family="Helvetica,sans-Serif" font-size="32.00" fill="#29235c"> &#160;&#160;&#160;</text>
<text text-anchor="start" x="1790.42" y="-1342.59" font-family="Helvetica,sans-Serif" font-style="italic" font-size="32.00" fill="#29235c">INTEGER</text>
<polygon fill="#e7e2dd" stroke="transparent" points="1650.63,-1261.39 1650.63,-1321.39 1943.63,-1321.39 1943.63,-1261.39 1650.63,-1261.39"/>
<polygon fill="none" stroke="#29235c" points="1650.63,-1261.39 1650.63,-1321.39 1943.63,-1321.39 1943.63,-1261.39 1650.63,-1261.39"/>
<text text-anchor="start" x="1661.34" y="-1281.59" font-family="Helvetica,sans-Serif" font-size="32.00" fill="#29235c">name &#160;&#160;&#160;</text>
<text text-anchor="start" x="1776.42" y="-1282.59" font-family="Helvetica,sans-Serif" font-style="italic" font-size="32.00" fill="#29235c">VARCHAR</text>
<polygon fill="none" stroke="#29235c" stroke-width="2" points="1649.13,-1260.39 1649.13,-1442.39 1944.13,-1442.39 1944.13,-1260.39 1649.13,-1260.39"/>
</g>
<!-- Car -->
<g id="Car" class="node">
<title>Car</title>
<ellipse fill="none" stroke="black" stroke-width="0" cx="1100.2" cy="-1231.39" rx="357.18" ry="299.63"/>
<polygon fill="#1d71b8" stroke="transparent" points="850.2,-1381.39 850.2,-1441.39 1351.2,-1441.39 1351.2,-1381.39 850.2,-1381.39"/>
<polygon fill="none" stroke="#29235c" points="850.2,-1381.39 850.2,-1441.39 1351.2,-1441.39 1351.2,-1381.39 850.2,-1381.39"/>
<text text-anchor="start" x="1012.67" y="-1402.59" font-family="Helvetica,sans-Serif" font-weight="bold" font-size="32.00" fill="#ffffff"> &#160;&#160;&#160;&#160;&#160;&#160;Car &#160;&#160;&#160;&#160;&#160;&#160;</text>
<polygon fill="#e7e2dd" stroke="transparent" points="850.2,-1321.39 850.2,-1381.39 1351.2,-1381.39 1351.2,-1321.39 850.2,-1321.39"/>
<polygon fill="none" stroke="#29235c" points="850.2,-1321.39 850.2,-1381.39 1351.2,-1381.39 1351.2,-1321.39 850.2,-1321.39"/>
<text text-anchor="start" x="861.2" y="-1342.59" font-family="Helvetica,sans-Serif" font-weight="bold" font-size="32.00" fill="#29235c">id</text>
<text text-anchor="start" x="886.09" y="-1342.59" font-family="Helvetica,sans-Serif" font-size="32.00" fill="#29235c"> &#160;&#160;&#160;</text>
<text text-anchor="start" x="1197.98" y="-1342.59" font-family="Helvetica,sans-Serif" font-style="italic" font-size="32.00" fill="#29235c">INTEGER</text>
<polygon fill="#e7e2dd" stroke="transparent" points="850.2,-1261.39 850.2,-1321.39 1351.2,-1321.39 1351.2,-1261.39 850.2,-1261.39"/>
<polygon fill="none" stroke="#29235c" points="850.2,-1261.39 850.2,-1321.39 1351.2,-1321.39 1351.2,-1261.39 850.2,-1261.39"/>
<text text-anchor="start" x="861.2" y="-1281.59" font-family="Helvetica,sans-Serif" font-size="32.00" fill="#29235c">model &#160;&#160;&#160;</text>
<text text-anchor="start" x="1183.77" y="-1282.59" font-family="Helvetica,sans-Serif" font-style="italic" font-size="32.00" fill="#29235c">VARCHAR</text>
<polygon fill="#e7e2dd" stroke="transparent" points="850.2,-1201.39 850.2,-1261.39 1351.2,-1261.39 1351.2,-1201.39 850.2,-1201.39"/>
<polygon fill="none" stroke="#29235c" points="850.2,-1201.39 850.2,-1261.39 1351.2,-1261.39 1351.2,-1201.39 850.2,-1201.39"/>
<text text-anchor="start" x="861.2" y="-1221.59" font-family="Helvetica,sans-Serif" font-size="32.00" fill="#29235c">brand_id &#160;&#160;&#160;</text>
<text text-anchor="start" x="1197.98" y="-1222.59" font-family="Helvetica,sans-Serif" font-style="italic" font-size="32.00" fill="#29235c">INTEGER</text>
<polygon fill="#e7e2dd" stroke="transparent" points="850.2,-1141.39 850.2,-1201.39 1351.2,-1201.39 1351.2,-1141.39 850.2,-1141.39"/>
<polygon fill="none" stroke="#29235c" points="850.2,-1141.39 850.2,-1201.39 1351.2,-1201.39 1351.2,-1141.39 850.2,-1141.39"/>
<text text-anchor="start" x="861.2" y="-1161.59" font-family="Helvetica,sans-Serif" font-size="32.00" fill="#29235c">price &#160;&#160;&#160;</text>
<text text-anchor="start" x="1197.98" y="-1162.59" font-family="Helvetica,sans-Serif" font-style="italic" font-size="32.00" fill="#29235c">INTEGER</text>
<polygon fill="#e7e2dd" stroke="transparent" points="850.2,-1081.39 850.2,-1141.39 1351.2,-1141.39 1351.2,-1081.39 850.2,-1081.39"/>
<polygon fill="none" stroke="#29235c" points="850.2,-1081.39 850.2,-1141.39 1351.2,-1141.39 1351.2,-1081.39 850.2,-1081.39"/>
<text text-anchor="start" x="860.75" y="-1101.59" font-family="Helvetica,sans-Serif" font-size="32.00" fill="#29235c">year_of_manufacture &#160;&#160;&#160;</text>
<text text-anchor="start" x="1198.09" y="-1102.59" font-family="Helvetica,sans-Serif" font-style="italic" font-size="32.00" fill="#29235c">INTEGER</text>
<polygon fill="#e7e2dd" stroke="transparent" points="850.2,-1021.39 850.2,-1081.39 1351.2,-1081.39 1351.2,-1021.39 850.2,-1021.39"/>
<polygon fill="none" stroke="#29235c" points="850.2,-1021.39 850.2,-1081.39 1351.2,-1081.39 1351.2,-1021.39 850.2,-1021.39"/>
<text text-anchor="start" x="861.2" y="-1041.59" font-family="Helvetica,sans-Serif" font-size="32.00" fill="#29235c">test_drive_count &#160;&#160;&#160;</text>
<text text-anchor="start" x="1197.98" y="-1042.59" font-family="Helvetica,sans-Serif" font-style="italic" font-size="32.00" fill="#29235c">INTEGER</text>
<polygon fill="none" stroke="#29235c" stroke-width="2" points="848.7,-1020.39 848.7,-1442.39 1351.7,-1442.39 1351.7,-1020.39 848.7,-1020.39"/>
</g>
<!-- Car&#45;&gt;Brand -->
<!-- Car&#45;&gt;Brand -->
<g id="edge2" class="edge">
<title>Car:e&#45;&gt;Brand:w</title>
<path fill="none" stroke="#29235c" stroke-width="3" d="M1352.2,-1231.39C1491.26,-1231.39 1506.41,-1345.6 1639.42,-1351.18"/>
<polygon fill="#29235c" stroke="#29235c" stroke-width="3" points="1639.56,-1354.68 1649.63,-1351.39 1639.71,-1347.68 1639.56,-1354.68"/>
<text text-anchor="middle" x="1643.41" y="-1360.99" font-family="Helvetica,sans-Serif" font-size="32.00" fill="#29235c">*</text>
<text text-anchor="middle" x="1343.3" y="-1240.99" font-family="Helvetica,sans-Serif" font-size="32.00" fill="#29235c">1</text>
</g>
<!-- CarFeature -->
<g id="CarFeature" class="node">
<title>CarFeature</title>
<ellipse fill="none" stroke="black" stroke-width="0" cx="1100.2" cy="-2695.39" rx="292.98" ry="130.22"/>
<polygon fill="#1d71b8" stroke="transparent" points="895.2,-2725.39 895.2,-2785.39 1305.2,-2785.39 1305.2,-2725.39 895.2,-2725.39"/>
<polygon fill="none" stroke="#29235c" points="895.2,-2725.39 895.2,-2785.39 1305.2,-2785.39 1305.2,-2725.39 895.2,-2725.39"/>
<text text-anchor="start" x="957.05" y="-2746.59" font-family="Helvetica,sans-Serif" font-weight="bold" font-size="32.00" fill="#ffffff"> &#160;&#160;&#160;&#160;&#160;&#160;CarFeature &#160;&#160;&#160;&#160;&#160;&#160;</text>
<polygon fill="#e7e2dd" stroke="transparent" points="895.2,-2665.39 895.2,-2725.39 1305.2,-2725.39 1305.2,-2665.39 895.2,-2665.39"/>
<polygon fill="none" stroke="#29235c" points="895.2,-2665.39 895.2,-2725.39 1305.2,-2725.39 1305.2,-2665.39 895.2,-2665.39"/>
<text text-anchor="start" x="906.2" y="-2686.59" font-family="Helvetica,sans-Serif" font-weight="bold" font-size="32.00" fill="#29235c">id</text>
<text text-anchor="start" x="931.09" y="-2686.59" font-family="Helvetica,sans-Serif" font-size="32.00" fill="#29235c"> &#160;&#160;&#160;</text>
<text text-anchor="start" x="1151.98" y="-2686.59" font-family="Helvetica,sans-Serif" font-style="italic" font-size="32.00" fill="#29235c">INTEGER</text>
<polygon fill="#e7e2dd" stroke="transparent" points="895.2,-2605.39 895.2,-2665.39 1305.2,-2665.39 1305.2,-2605.39 895.2,-2605.39"/>
<polygon fill="none" stroke="#29235c" points="895.2,-2605.39 895.2,-2665.39 1305.2,-2665.39 1305.2,-2605.39 895.2,-2605.39"/>
<text text-anchor="start" x="905.71" y="-2625.59" font-family="Helvetica,sans-Serif" font-size="32.00" fill="#29235c">feature_name &#160;&#160;&#160;</text>
<text text-anchor="start" x="1137.98" y="-2626.59" font-family="Helvetica,sans-Serif" font-style="italic" font-size="32.00" fill="#29235c">VARCHAR</text>
<polygon fill="none" stroke="#29235c" stroke-width="2" points="894.2,-2604.39 894.2,-2786.39 1306.2,-2786.39 1306.2,-2604.39 894.2,-2604.39"/>
</g>
<!-- CarFeatureAssignment -->
<g id="CarFeatureAssignment" class="node">
<title>CarFeatureAssignment</title>
<ellipse fill="none" stroke="black" stroke-width="0" cx="353.55" cy="-2665.39" rx="338.91" ry="172.57"/>
<polygon fill="#1d71b8" stroke="transparent" points="116.55,-2725.39 116.55,-2785.39 591.55,-2785.39 591.55,-2725.39 116.55,-2725.39"/>
<polygon fill="none" stroke="#29235c" points="116.55,-2725.39 116.55,-2785.39 591.55,-2785.39 591.55,-2725.39 116.55,-2725.39"/>
<text text-anchor="start" x="127.34" y="-2746.59" font-family="Helvetica,sans-Serif" font-weight="bold" font-size="32.00" fill="#ffffff"> &#160;&#160;&#160;&#160;&#160;&#160;CarFeatureAssignment &#160;&#160;&#160;&#160;&#160;&#160;</text>
<polygon fill="#e7e2dd" stroke="transparent" points="116.55,-2665.39 116.55,-2725.39 591.55,-2725.39 591.55,-2665.39 116.55,-2665.39"/>
<polygon fill="none" stroke="#29235c" points="116.55,-2665.39 116.55,-2725.39 591.55,-2725.39 591.55,-2665.39 116.55,-2665.39"/>
<text text-anchor="start" x="127.55" y="-2686.59" font-family="Helvetica,sans-Serif" font-weight="bold" font-size="32.00" fill="#29235c">id</text>
<text text-anchor="start" x="152.44" y="-2686.59" font-family="Helvetica,sans-Serif" font-size="32.00" fill="#29235c"> &#160;&#160;&#160;</text>
<text text-anchor="start" x="438.34" y="-2686.59" font-family="Helvetica,sans-Serif" font-style="italic" font-size="32.00" fill="#29235c">INTEGER</text>
<polygon fill="#e7e2dd" stroke="transparent" points="116.55,-2605.39 116.55,-2665.39 591.55,-2665.39 591.55,-2605.39 116.55,-2605.39"/>
<polygon fill="none" stroke="#29235c" points="116.55,-2605.39 116.55,-2665.39 591.55,-2665.39 591.55,-2605.39 116.55,-2605.39"/>
<text text-anchor="start" x="127.55" y="-2625.59" font-family="Helvetica,sans-Serif" font-size="32.00" fill="#29235c">car_id &#160;&#160;&#160;</text>
<text text-anchor="start" x="438.34" y="-2626.59" font-family="Helvetica,sans-Serif" font-style="italic" font-size="32.00" fill="#29235c">INTEGER</text>
<polygon fill="#e7e2dd" stroke="transparent" points="116.55,-2545.39 116.55,-2605.39 591.55,-2605.39 591.55,-2545.39 116.55,-2545.39"/>
<polygon fill="none" stroke="#29235c" points="116.55,-2545.39 116.55,-2605.39 591.55,-2605.39 591.55,-2545.39 116.55,-2545.39"/>
<text text-anchor="start" x="127.55" y="-2565.59" font-family="Helvetica,sans-Serif" font-size="32.00" fill="#29235c">feature_id &#160;&#160;&#160;</text>
<text text-anchor="start" x="438.34" y="-2566.59" font-family="Helvetica,sans-Serif" font-style="italic" font-size="32.00" fill="#29235c">INTEGER</text>
<polygon fill="none" stroke="#29235c" stroke-width="2" points="115.05,-2544.39 115.05,-2786.39 592.05,-2786.39 592.05,-2544.39 115.05,-2544.39"/>
</g>
<!-- CarFeatureAssignment&#45;&gt;Car -->
<!-- CarFeatureAssignment&#45;&gt;Car -->
<g id="edge4" class="edge">
<title>CarFeatureAssignment:e&#45;&gt;Car:w</title>
<path fill="none" stroke="#29235c" stroke-width="3" d="M592.55,-2635.39C677.15,-2635.39 677.94,-2562.79 707.11,-2483.39 793.34,-2248.66 601.05,-1375.71 839.05,-1351.88"/>
<polygon fill="#29235c" stroke="#29235c" stroke-width="3" points="839.38,-1355.37 849.2,-1351.39 839.04,-1348.38 839.38,-1355.37"/>
<text text-anchor="middle" x="855.42" y="-1360.99" font-family="Helvetica,sans-Serif" font-size="32.00" fill="#29235c">*</text>
<text text-anchor="middle" x="583.66" y="-2644.99" font-family="Helvetica,sans-Serif" font-size="32.00" fill="#29235c">1</text>
</g>
<!-- CarFeatureAssignment&#45;&gt;CarFeature -->
<!-- CarFeatureAssignment&#45;&gt;CarFeature -->
<g id="edge6" class="edge">
<title>CarFeatureAssignment:e&#45;&gt;CarFeature:w</title>
<path fill="none" stroke="#29235c" stroke-width="3" d="M592.55,-2575.39C733.31,-2575.39 749.2,-2689.6 883.86,-2695.18"/>
<polygon fill="#29235c" stroke="#29235c" stroke-width="3" points="884.13,-2698.68 894.2,-2695.39 884.27,-2691.68 884.13,-2698.68"/>
<text text-anchor="middle" x="900.42" y="-2704.99" font-family="Helvetica,sans-Serif" font-size="32.00" fill="#29235c">*</text>
<text text-anchor="middle" x="583.66" y="-2584.99" font-family="Helvetica,sans-Serif" font-size="32.00" fill="#29235c">1</text>
</g>
<!-- Customer -->
<g id="Customer" class="node">
<title>Customer</title>
<ellipse fill="none" stroke="black" stroke-width="0" cx="1100.2" cy="-469.39" rx="309.93" ry="257.27"/>
<polygon fill="#1d71b8" stroke="transparent" points="883.2,-589.39 883.2,-649.39 1317.2,-649.39 1317.2,-589.39 883.2,-589.39"/>
<polygon fill="none" stroke="#29235c" points="883.2,-589.39 883.2,-649.39 1317.2,-649.39 1317.2,-589.39 883.2,-589.39"/>
<text text-anchor="start" x="968.61" y="-610.59" font-family="Helvetica,sans-Serif" font-weight="bold" font-size="32.00" fill="#ffffff"> &#160;&#160;&#160;&#160;&#160;&#160;Customer &#160;&#160;&#160;&#160;&#160;&#160;</text>
<polygon fill="#e7e2dd" stroke="transparent" points="883.2,-529.39 883.2,-589.39 1317.2,-589.39 1317.2,-529.39 883.2,-529.39"/>
<polygon fill="none" stroke="#29235c" points="883.2,-529.39 883.2,-589.39 1317.2,-589.39 1317.2,-529.39 883.2,-529.39"/>
<text text-anchor="start" x="894.2" y="-550.59" font-family="Helvetica,sans-Serif" font-weight="bold" font-size="32.00" fill="#29235c">id</text>
<text text-anchor="start" x="919.09" y="-550.59" font-family="Helvetica,sans-Serif" font-size="32.00" fill="#29235c"> &#160;&#160;&#160;</text>
<text text-anchor="start" x="1163.98" y="-550.59" font-family="Helvetica,sans-Serif" font-style="italic" font-size="32.00" fill="#29235c">INTEGER</text>
<polygon fill="#e7e2dd" stroke="transparent" points="883.2,-469.39 883.2,-529.39 1317.2,-529.39 1317.2,-469.39 883.2,-469.39"/>
<polygon fill="none" stroke="#29235c" points="883.2,-469.39 883.2,-529.39 1317.2,-529.39 1317.2,-469.39 883.2,-469.39"/>
<text text-anchor="start" x="894.2" y="-489.59" font-family="Helvetica,sans-Serif" font-size="32.00" fill="#29235c">first_name &#160;&#160;&#160;</text>
<text text-anchor="start" x="1149.77" y="-490.59" font-family="Helvetica,sans-Serif" font-style="italic" font-size="32.00" fill="#29235c">VARCHAR</text>
<polygon fill="#e7e2dd" stroke="transparent" points="883.2,-409.39 883.2,-469.39 1317.2,-469.39 1317.2,-409.39 883.2,-409.39"/>
<polygon fill="none" stroke="#29235c" points="883.2,-409.39 883.2,-469.39 1317.2,-469.39 1317.2,-409.39 883.2,-409.39"/>
<text text-anchor="start" x="894.2" y="-429.59" font-family="Helvetica,sans-Serif" font-size="32.00" fill="#29235c">last_name &#160;&#160;&#160;</text>
<text text-anchor="start" x="1149.77" y="-430.59" font-family="Helvetica,sans-Serif" font-style="italic" font-size="32.00" fill="#29235c">VARCHAR</text>
<polygon fill="#e7e2dd" stroke="transparent" points="883.2,-349.39 883.2,-409.39 1317.2,-409.39 1317.2,-349.39 883.2,-349.39"/>
<polygon fill="none" stroke="#29235c" points="883.2,-349.39 883.2,-409.39 1317.2,-409.39 1317.2,-349.39 883.2,-349.39"/>
<text text-anchor="start" x="894.2" y="-369.59" font-family="Helvetica,sans-Serif" font-size="32.00" fill="#29235c">email &#160;&#160;&#160;</text>
<text text-anchor="start" x="1149.77" y="-370.59" font-family="Helvetica,sans-Serif" font-style="italic" font-size="32.00" fill="#29235c">VARCHAR</text>
<polygon fill="#e7e2dd" stroke="transparent" points="883.2,-289.39 883.2,-349.39 1317.2,-349.39 1317.2,-289.39 883.2,-289.39"/>
<polygon fill="none" stroke="#29235c" points="883.2,-289.39 883.2,-349.39 1317.2,-349.39 1317.2,-289.39 883.2,-289.39"/>
<text text-anchor="start" x="894.04" y="-309.59" font-family="Helvetica,sans-Serif" font-size="32.00" fill="#29235c">test_drive_count &#160;&#160;&#160;</text>
<text text-anchor="start" x="1164.09" y="-310.59" font-family="Helvetica,sans-Serif" font-style="italic" font-size="32.00" fill="#29235c">INTEGER</text>
<polygon fill="none" stroke="#29235c" stroke-width="2" points="882.2,-288.39 882.2,-650.39 1318.2,-650.39 1318.2,-288.39 882.2,-288.39"/>
</g>
<!-- Dealer -->
<g id="Dealer" class="node">
<title>Dealer</title>
<ellipse fill="none" stroke="black" stroke-width="0" cx="1796.63" cy="-1738.39" rx="303.2" ry="214.92"/>
<polygon fill="#1d71b8" stroke="transparent" points="1584.63,-1828.39 1584.63,-1888.39 2009.63,-1888.39 2009.63,-1828.39 1584.63,-1828.39"/>
<polygon fill="none" stroke="#29235c" points="1584.63,-1828.39 1584.63,-1888.39 2009.63,-1888.39 2009.63,-1828.39 1584.63,-1828.39"/>
<text text-anchor="start" x="1687.77" y="-1849.59" font-family="Helvetica,sans-Serif" font-weight="bold" font-size="32.00" fill="#ffffff"> &#160;&#160;&#160;&#160;&#160;&#160;Dealer &#160;&#160;&#160;&#160;&#160;&#160;</text>
<polygon fill="#e7e2dd" stroke="transparent" points="1584.63,-1768.39 1584.63,-1828.39 2009.63,-1828.39 2009.63,-1768.39 1584.63,-1768.39"/>
<polygon fill="none" stroke="#29235c" points="1584.63,-1768.39 1584.63,-1828.39 2009.63,-1828.39 2009.63,-1768.39 1584.63,-1768.39"/>
<text text-anchor="start" x="1595.63" y="-1789.59" font-family="Helvetica,sans-Serif" font-weight="bold" font-size="32.00" fill="#29235c">id</text>
<text text-anchor="start" x="1620.52" y="-1789.59" font-family="Helvetica,sans-Serif" font-size="32.00" fill="#29235c"> &#160;&#160;&#160;</text>
<text text-anchor="start" x="1856.42" y="-1789.59" font-family="Helvetica,sans-Serif" font-style="italic" font-size="32.00" fill="#29235c">INTEGER</text>
<polygon fill="#e7e2dd" stroke="transparent" points="1584.63,-1708.39 1584.63,-1768.39 2009.63,-1768.39 2009.63,-1708.39 1584.63,-1708.39"/>
<polygon fill="none" stroke="#29235c" points="1584.63,-1708.39 1584.63,-1768.39 2009.63,-1768.39 2009.63,-1708.39 1584.63,-1708.39"/>
<text text-anchor="start" x="1595.63" y="-1728.59" font-family="Helvetica,sans-Serif" font-size="32.00" fill="#29235c">name &#160;&#160;&#160;</text>
<text text-anchor="start" x="1842.21" y="-1729.59" font-family="Helvetica,sans-Serif" font-style="italic" font-size="32.00" fill="#29235c">VARCHAR</text>
<polygon fill="#e7e2dd" stroke="transparent" points="1584.63,-1648.39 1584.63,-1708.39 2009.63,-1708.39 2009.63,-1648.39 1584.63,-1648.39"/>
<polygon fill="none" stroke="#29235c" points="1584.63,-1648.39 1584.63,-1708.39 2009.63,-1708.39 2009.63,-1648.39 1584.63,-1648.39"/>
<text text-anchor="start" x="1595.63" y="-1668.59" font-family="Helvetica,sans-Serif" font-size="32.00" fill="#29235c">location &#160;&#160;&#160;</text>
<text text-anchor="start" x="1842.21" y="-1669.59" font-family="Helvetica,sans-Serif" font-style="italic" font-size="32.00" fill="#29235c">VARCHAR</text>
<polygon fill="#e7e2dd" stroke="transparent" points="1584.63,-1588.39 1584.63,-1648.39 2009.63,-1648.39 2009.63,-1588.39 1584.63,-1588.39"/>
<polygon fill="none" stroke="#29235c" points="1584.63,-1588.39 1584.63,-1648.39 2009.63,-1648.39 2009.63,-1588.39 1584.63,-1588.39"/>
<text text-anchor="start" x="1595.42" y="-1608.59" font-family="Helvetica,sans-Serif" font-size="32.00" fill="#29235c">inventory_count &#160;&#160;&#160;</text>
<text text-anchor="start" x="1856.52" y="-1609.59" font-family="Helvetica,sans-Serif" font-style="italic" font-size="32.00" fill="#29235c">INTEGER</text>
<polygon fill="none" stroke="#29235c" stroke-width="2" points="1583.13,-1587.39 1583.13,-1889.39 2010.13,-1889.39 2010.13,-1587.39 1583.13,-1587.39"/>
</g>
<!-- Employee -->
<g id="Employee" class="node">
<title>Employee</title>
<ellipse fill="none" stroke="black" stroke-width="0" cx="1100.2" cy="-2175.39" rx="282.69" ry="299.63"/>
<polygon fill="#1d71b8" stroke="transparent" points="902.2,-2325.39 902.2,-2385.39 1298.2,-2385.39 1298.2,-2325.39 902.2,-2325.39"/>
<polygon fill="none" stroke="#29235c" points="902.2,-2325.39 902.2,-2385.39 1298.2,-2385.39 1298.2,-2325.39 902.2,-2325.39"/>
<text text-anchor="start" x="966.82" y="-2346.59" font-family="Helvetica,sans-Serif" font-weight="bold" font-size="32.00" fill="#ffffff"> &#160;&#160;&#160;&#160;&#160;&#160;Employee &#160;&#160;&#160;&#160;&#160;&#160;</text>
<polygon fill="#e7e2dd" stroke="transparent" points="902.2,-2265.39 902.2,-2325.39 1298.2,-2325.39 1298.2,-2265.39 902.2,-2265.39"/>
<polygon fill="none" stroke="#29235c" points="902.2,-2265.39 902.2,-2325.39 1298.2,-2325.39 1298.2,-2265.39 902.2,-2265.39"/>
<text text-anchor="start" x="913.2" y="-2286.59" font-family="Helvetica,sans-Serif" font-weight="bold" font-size="32.00" fill="#29235c">id</text>
<text text-anchor="start" x="938.09" y="-2286.59" font-family="Helvetica,sans-Serif" font-size="32.00" fill="#29235c"> &#160;&#160;&#160;</text>
<text text-anchor="start" x="1144.98" y="-2286.59" font-family="Helvetica,sans-Serif" font-style="italic" font-size="32.00" fill="#29235c">INTEGER</text>
<polygon fill="#e7e2dd" stroke="transparent" points="902.2,-2205.39 902.2,-2265.39 1298.2,-2265.39 1298.2,-2205.39 902.2,-2205.39"/>
<polygon fill="none" stroke="#29235c" points="902.2,-2205.39 902.2,-2265.39 1298.2,-2265.39 1298.2,-2205.39 902.2,-2205.39"/>
<text text-anchor="start" x="913.2" y="-2225.59" font-family="Helvetica,sans-Serif" font-size="32.00" fill="#29235c">dealer_id &#160;&#160;&#160;</text>
<text text-anchor="start" x="1144.98" y="-2226.59" font-family="Helvetica,sans-Serif" font-style="italic" font-size="32.00" fill="#29235c">INTEGER</text>
<polygon fill="#e7e2dd" stroke="transparent" points="902.2,-2145.39 902.2,-2205.39 1298.2,-2205.39 1298.2,-2145.39 902.2,-2145.39"/>
<polygon fill="none" stroke="#29235c" points="902.2,-2145.39 902.2,-2205.39 1298.2,-2205.39 1298.2,-2145.39 902.2,-2145.39"/>
<text text-anchor="start" x="913.2" y="-2165.59" font-family="Helvetica,sans-Serif" font-size="32.00" fill="#29235c">first_name &#160;&#160;&#160;</text>
<text text-anchor="start" x="1130.77" y="-2166.59" font-family="Helvetica,sans-Serif" font-style="italic" font-size="32.00" fill="#29235c">VARCHAR</text>
<polygon fill="#e7e2dd" stroke="transparent" points="902.2,-2085.39 902.2,-2145.39 1298.2,-2145.39 1298.2,-2085.39 902.2,-2085.39"/>
<polygon fill="none" stroke="#29235c" points="902.2,-2085.39 902.2,-2145.39 1298.2,-2145.39 1298.2,-2085.39 902.2,-2085.39"/>
<text text-anchor="start" x="913.2" y="-2105.59" font-family="Helvetica,sans-Serif" font-size="32.00" fill="#29235c">last_name &#160;&#160;&#160;</text>
<text text-anchor="start" x="1130.77" y="-2106.59" font-family="Helvetica,sans-Serif" font-style="italic" font-size="32.00" fill="#29235c">VARCHAR</text>
<polygon fill="#e7e2dd" stroke="transparent" points="902.2,-2025.39 902.2,-2085.39 1298.2,-2085.39 1298.2,-2025.39 902.2,-2025.39"/>
<polygon fill="none" stroke="#29235c" points="902.2,-2025.39 902.2,-2085.39 1298.2,-2085.39 1298.2,-2025.39 902.2,-2025.39"/>
<text text-anchor="start" x="913.2" y="-2045.59" font-family="Helvetica,sans-Serif" font-size="32.00" fill="#29235c">position &#160;&#160;&#160;</text>
<text text-anchor="start" x="1130.77" y="-2046.59" font-family="Helvetica,sans-Serif" font-style="italic" font-size="32.00" fill="#29235c">VARCHAR</text>
<polygon fill="#e7e2dd" stroke="transparent" points="902.2,-1965.39 902.2,-2025.39 1298.2,-2025.39 1298.2,-1965.39 902.2,-1965.39"/>
<polygon fill="none" stroke="#29235c" points="902.2,-1965.39 902.2,-2025.39 1298.2,-2025.39 1298.2,-1965.39 902.2,-1965.39"/>
<text text-anchor="start" x="912.72" y="-1985.59" font-family="Helvetica,sans-Serif" font-size="32.00" fill="#29235c">service_count &#160;&#160;&#160;</text>
<text text-anchor="start" x="1145.09" y="-1986.59" font-family="Helvetica,sans-Serif" font-style="italic" font-size="32.00" fill="#29235c">INTEGER</text>
<polygon fill="none" stroke="#29235c" stroke-width="2" points="901.2,-1964.39 901.2,-2386.39 1299.2,-2386.39 1299.2,-1964.39 901.2,-1964.39"/>
</g>
<!-- Employee&#45;&gt;Dealer -->
<!-- Employee&#45;&gt;Dealer -->
<g id="edge8" class="edge">
<title>Employee:e&#45;&gt;Dealer:w</title>
<path fill="none" stroke="#29235c" stroke-width="3" d="M1299.2,-2235.39C1527.43,-2235.39 1357.22,-1811.52 1573.39,-1798.68"/>
<polygon fill="#29235c" stroke="#29235c" stroke-width="3" points="1573.74,-1802.18 1583.63,-1798.39 1573.54,-1795.18 1573.74,-1802.18"/>
<text text-anchor="middle" x="1577.41" y="-1807.99" font-family="Helvetica,sans-Serif" font-size="32.00" fill="#29235c">*</text>
<text text-anchor="middle" x="1290.3" y="-2244.99" font-family="Helvetica,sans-Serif" font-size="32.00" fill="#29235c">1</text>
</g>
<!-- Inventory -->
<g id="Inventory" class="node">
<title>Inventory</title>
<ellipse fill="none" stroke="black" stroke-width="0" cx="353.55" cy="-1727.39" rx="236.76" ry="214.92"/>
<polygon fill="#1d71b8" stroke="transparent" points="188.55,-1817.39 188.55,-1877.39 519.55,-1877.39 519.55,-1817.39 188.55,-1817.39"/>
<polygon fill="none" stroke="#29235c" points="188.55,-1817.39 188.55,-1877.39 519.55,-1877.39 519.55,-1817.39 188.55,-1817.39"/>
<text text-anchor="start" x="226.01" y="-1838.59" font-family="Helvetica,sans-Serif" font-weight="bold" font-size="32.00" fill="#ffffff"> &#160;&#160;&#160;&#160;&#160;&#160;Inventory &#160;&#160;&#160;&#160;&#160;&#160;</text>
<polygon fill="#e7e2dd" stroke="transparent" points="188.55,-1757.39 188.55,-1817.39 519.55,-1817.39 519.55,-1757.39 188.55,-1757.39"/>
<polygon fill="none" stroke="#29235c" points="188.55,-1757.39 188.55,-1817.39 519.55,-1817.39 519.55,-1757.39 188.55,-1757.39"/>
<text text-anchor="start" x="199.55" y="-1778.59" font-family="Helvetica,sans-Serif" font-weight="bold" font-size="32.00" fill="#29235c">id</text>
<text text-anchor="start" x="224.44" y="-1778.59" font-family="Helvetica,sans-Serif" font-size="32.00" fill="#29235c"> &#160;&#160;&#160;</text>
<text text-anchor="start" x="366.34" y="-1778.59" font-family="Helvetica,sans-Serif" font-style="italic" font-size="32.00" fill="#29235c">INTEGER</text>
<polygon fill="#e7e2dd" stroke="transparent" points="188.55,-1697.39 188.55,-1757.39 519.55,-1757.39 519.55,-1697.39 188.55,-1697.39"/>
<polygon fill="none" stroke="#29235c" points="188.55,-1697.39 188.55,-1757.39 519.55,-1757.39 519.55,-1697.39 188.55,-1697.39"/>
<text text-anchor="start" x="199.47" y="-1717.59" font-family="Helvetica,sans-Serif" font-size="32.00" fill="#29235c">dealer_id &#160;&#160;&#160;</text>
<text text-anchor="start" x="366.44" y="-1718.59" font-family="Helvetica,sans-Serif" font-style="italic" font-size="32.00" fill="#29235c">INTEGER</text>
<polygon fill="#e7e2dd" stroke="transparent" points="188.55,-1637.39 188.55,-1697.39 519.55,-1697.39 519.55,-1637.39 188.55,-1637.39"/>
<polygon fill="none" stroke="#29235c" points="188.55,-1637.39 188.55,-1697.39 519.55,-1697.39 519.55,-1637.39 188.55,-1637.39"/>
<text text-anchor="start" x="199.55" y="-1657.59" font-family="Helvetica,sans-Serif" font-size="32.00" fill="#29235c">car_id &#160;&#160;&#160;</text>
<text text-anchor="start" x="366.34" y="-1658.59" font-family="Helvetica,sans-Serif" font-style="italic" font-size="32.00" fill="#29235c">INTEGER</text>
<polygon fill="#e7e2dd" stroke="transparent" points="188.55,-1577.39 188.55,-1637.39 519.55,-1637.39 519.55,-1577.39 188.55,-1577.39"/>
<polygon fill="none" stroke="#29235c" points="188.55,-1577.39 188.55,-1637.39 519.55,-1637.39 519.55,-1577.39 188.55,-1577.39"/>
<text text-anchor="start" x="199.55" y="-1597.59" font-family="Helvetica,sans-Serif" font-size="32.00" fill="#29235c">quantity &#160;&#160;&#160;</text>
<text text-anchor="start" x="366.34" y="-1598.59" font-family="Helvetica,sans-Serif" font-style="italic" font-size="32.00" fill="#29235c">INTEGER</text>
<polygon fill="none" stroke="#29235c" stroke-width="2" points="187.05,-1576.39 187.05,-1878.39 520.05,-1878.39 520.05,-1576.39 187.05,-1576.39"/>
</g>
<!-- Inventory&#45;&gt;Car -->
<!-- Inventory&#45;&gt;Car -->
<g id="edge10" class="edge">
<title>Inventory:e&#45;&gt;Car:w</title>
<path fill="none" stroke="#29235c" stroke-width="3" d="M520.55,-1667.39C630.95,-1667.39 627.86,-1580.25 707.11,-1503.39 770.9,-1441.52 757.9,-1358.2 838.85,-1351.78"/>
<polygon fill="#29235c" stroke="#29235c" stroke-width="3" points="839.34,-1355.27 849.2,-1351.39 839.07,-1348.27 839.34,-1355.27"/>
<text text-anchor="middle" x="855.42" y="-1322.59" font-family="Helvetica,sans-Serif" font-size="32.00" fill="#29235c">*</text>
<text text-anchor="middle" x="511.66" y="-1676.99" font-family="Helvetica,sans-Serif" font-size="32.00" fill="#29235c">1</text>
</g>
<!-- Inventory&#45;&gt;Dealer -->
<!-- Inventory&#45;&gt;Dealer -->
<g id="edge12" class="edge">
<title>Inventory:e&#45;&gt;Dealer:w</title>
<path fill="none" stroke="#29235c" stroke-width="3" d="M520.55,-1727.39C990.73,-1727.39 1108.44,-1797.39 1573.63,-1798.38"/>
<polygon fill="#29235c" stroke="#29235c" stroke-width="3" points="1573.63,-1801.88 1583.63,-1798.39 1573.64,-1794.88 1573.63,-1801.88"/>
<text text-anchor="middle" x="1577.41" y="-1769.59" font-family="Helvetica,sans-Serif" font-size="32.00" fill="#29235c">*</text>
<text text-anchor="middle" x="511.66" y="-1736.99" font-family="Helvetica,sans-Serif" font-size="32.00" fill="#29235c">1</text>
</g>
<!-- Maintenance -->
<g id="Maintenance" class="node">
<title>Maintenance</title>
<ellipse fill="none" stroke="black" stroke-width="0" cx="353.55" cy="-2217.39" rx="345.55" ry="257.27"/>
<polygon fill="#1d71b8" stroke="transparent" points="111.55,-2337.39 111.55,-2397.39 596.55,-2397.39 596.55,-2337.39 111.55,-2337.39"/>
<polygon fill="none" stroke="#29235c" points="111.55,-2337.39 111.55,-2397.39 596.55,-2397.39 596.55,-2337.39 111.55,-2337.39"/>
<text text-anchor="start" x="200.22" y="-2358.59" font-family="Helvetica,sans-Serif" font-weight="bold" font-size="32.00" fill="#ffffff"> &#160;&#160;&#160;&#160;&#160;&#160;Maintenance &#160;&#160;&#160;&#160;&#160;&#160;</text>
<polygon fill="#e7e2dd" stroke="transparent" points="111.55,-2277.39 111.55,-2337.39 596.55,-2337.39 596.55,-2277.39 111.55,-2277.39"/>
<polygon fill="none" stroke="#29235c" points="111.55,-2277.39 111.55,-2337.39 596.55,-2337.39 596.55,-2277.39 111.55,-2277.39"/>
<text text-anchor="start" x="122.55" y="-2298.59" font-family="Helvetica,sans-Serif" font-weight="bold" font-size="32.00" fill="#29235c">id</text>
<text text-anchor="start" x="147.44" y="-2298.59" font-family="Helvetica,sans-Serif" font-size="32.00" fill="#29235c"> &#160;&#160;&#160;</text>
<text text-anchor="start" x="443.34" y="-2298.59" font-family="Helvetica,sans-Serif" font-style="italic" font-size="32.00" fill="#29235c">INTEGER</text>
<polygon fill="#e7e2dd" stroke="transparent" points="111.55,-2217.39 111.55,-2277.39 596.55,-2277.39 596.55,-2217.39 111.55,-2217.39"/>
<polygon fill="none" stroke="#29235c" points="111.55,-2217.39 111.55,-2277.39 596.55,-2277.39 596.55,-2217.39 111.55,-2217.39"/>
<text text-anchor="start" x="122.55" y="-2237.59" font-family="Helvetica,sans-Serif" font-size="32.00" fill="#29235c">car_id &#160;&#160;&#160;</text>
<text text-anchor="start" x="443.34" y="-2238.59" font-family="Helvetica,sans-Serif" font-style="italic" font-size="32.00" fill="#29235c">INTEGER</text>
<polygon fill="#e7e2dd" stroke="transparent" points="111.55,-2157.39 111.55,-2217.39 596.55,-2217.39 596.55,-2157.39 111.55,-2157.39"/>
<polygon fill="none" stroke="#29235c" points="111.55,-2157.39 111.55,-2217.39 596.55,-2217.39 596.55,-2157.39 111.55,-2157.39"/>
<text text-anchor="start" x="122.55" y="-2177.59" font-family="Helvetica,sans-Serif" font-size="32.00" fill="#29235c">employee_id &#160;&#160;&#160;</text>
<text text-anchor="start" x="443.34" y="-2178.59" font-family="Helvetica,sans-Serif" font-style="italic" font-size="32.00" fill="#29235c">INTEGER</text>
<polygon fill="#e7e2dd" stroke="transparent" points="111.55,-2097.39 111.55,-2157.39 596.55,-2157.39 596.55,-2097.39 111.55,-2097.39"/>
<polygon fill="none" stroke="#29235c" points="111.55,-2097.39 111.55,-2157.39 596.55,-2157.39 596.55,-2097.39 111.55,-2097.39"/>
<text text-anchor="start" x="122.4" y="-2117.59" font-family="Helvetica,sans-Serif" font-size="32.00" fill="#29235c">last_serviced_date &#160;&#160;&#160;</text>
<text text-anchor="start" x="424.17" y="-2118.59" font-family="Helvetica,sans-Serif" font-style="italic" font-size="32.00" fill="#29235c">DATETIME</text>
<polygon fill="#e7e2dd" stroke="transparent" points="111.55,-2037.39 111.55,-2097.39 596.55,-2097.39 596.55,-2037.39 111.55,-2037.39"/>
<polygon fill="none" stroke="#29235c" points="111.55,-2037.39 111.55,-2097.39 596.55,-2097.39 596.55,-2037.39 111.55,-2037.39"/>
<text text-anchor="start" x="122.55" y="-2057.59" font-family="Helvetica,sans-Serif" font-size="32.00" fill="#29235c">service_details &#160;&#160;&#160;</text>
<text text-anchor="start" x="429.13" y="-2058.59" font-family="Helvetica,sans-Serif" font-style="italic" font-size="32.00" fill="#29235c">VARCHAR</text>
<polygon fill="none" stroke="#29235c" stroke-width="2" points="110.05,-2036.39 110.05,-2398.39 597.05,-2398.39 597.05,-2036.39 110.05,-2036.39"/>
</g>
<!-- Maintenance&#45;&gt;Car -->
<!-- Maintenance&#45;&gt;Car -->
<g id="edge14" class="edge">
<title>Maintenance:e&#45;&gt;Car:w</title>
<path fill="none" stroke="#29235c" stroke-width="3" d="M597.55,-2247.39C800.93,-2247.39 647.66,-1380.89 839.2,-1352.12"/>
<polygon fill="#29235c" stroke="#29235c" stroke-width="3" points="839.48,-1355.61 849.2,-1351.39 838.97,-1348.63 839.48,-1355.61"/>
<text text-anchor="middle" x="842.97" y="-1360.99" font-family="Helvetica,sans-Serif" font-size="32.00" fill="#29235c">*</text>
<text text-anchor="middle" x="588.66" y="-2256.99" font-family="Helvetica,sans-Serif" font-size="32.00" fill="#29235c">1</text>
</g>
<!-- Maintenance&#45;&gt;Employee -->
<!-- Maintenance&#45;&gt;Employee -->
<g id="edge16" class="edge">
<title>Maintenance:e&#45;&gt;Employee:w</title>
<path fill="none" stroke="#29235c" stroke-width="3" d="M597.55,-2187.39C737.29,-2187.39 757.05,-2290.18 890.93,-2295.2"/>
<polygon fill="#29235c" stroke="#29235c" stroke-width="3" points="891.13,-2298.7 901.2,-2295.39 891.26,-2291.7 891.13,-2298.7"/>
<text text-anchor="middle" x="907.42" y="-2304.99" font-family="Helvetica,sans-Serif" font-size="32.00" fill="#29235c">*</text>
<text text-anchor="middle" x="588.66" y="-2196.99" font-family="Helvetica,sans-Serif" font-size="32.00" fill="#29235c">1</text>
</g>
<!-- Promotion -->
<g id="Promotion" class="node">
<title>Promotion</title>
<ellipse fill="none" stroke="black" stroke-width="0" cx="353.55" cy="-1237.39" rx="353.61" ry="257.27"/>
<polygon fill="#1d71b8" stroke="transparent" points="105.55,-1357.39 105.55,-1417.39 601.55,-1417.39 601.55,-1357.39 105.55,-1357.39"/>
<polygon fill="none" stroke="#29235c" points="105.55,-1357.39 105.55,-1417.39 601.55,-1417.39 601.55,-1357.39 105.55,-1357.39"/>
<text text-anchor="start" x="218.41" y="-1378.59" font-family="Helvetica,sans-Serif" font-weight="bold" font-size="32.00" fill="#ffffff"> &#160;&#160;&#160;&#160;&#160;&#160;Promotion &#160;&#160;&#160;&#160;&#160;&#160;</text>
<polygon fill="#e7e2dd" stroke="transparent" points="105.55,-1297.39 105.55,-1357.39 601.55,-1357.39 601.55,-1297.39 105.55,-1297.39"/>
<polygon fill="none" stroke="#29235c" points="105.55,-1297.39 105.55,-1357.39 601.55,-1357.39 601.55,-1297.39 105.55,-1297.39"/>
<text text-anchor="start" x="116.55" y="-1318.59" font-family="Helvetica,sans-Serif" font-weight="bold" font-size="32.00" fill="#29235c">id</text>
<text text-anchor="start" x="141.44" y="-1318.59" font-family="Helvetica,sans-Serif" font-size="32.00" fill="#29235c"> &#160;&#160;&#160;</text>
<text text-anchor="start" x="448.34" y="-1318.59" font-family="Helvetica,sans-Serif" font-style="italic" font-size="32.00" fill="#29235c">INTEGER</text>
<polygon fill="#e7e2dd" stroke="transparent" points="105.55,-1237.39 105.55,-1297.39 601.55,-1297.39 601.55,-1237.39 105.55,-1237.39"/>
<polygon fill="none" stroke="#29235c" points="105.55,-1237.39 105.55,-1297.39 601.55,-1297.39 601.55,-1237.39 105.55,-1237.39"/>
<text text-anchor="start" x="116.55" y="-1257.59" font-family="Helvetica,sans-Serif" font-size="32.00" fill="#29235c">car_id &#160;&#160;&#160;</text>
<text text-anchor="start" x="448.34" y="-1258.59" font-family="Helvetica,sans-Serif" font-style="italic" font-size="32.00" fill="#29235c">INTEGER</text>
<polygon fill="#e7e2dd" stroke="transparent" points="105.55,-1177.39 105.55,-1237.39 601.55,-1237.39 601.55,-1177.39 105.55,-1177.39"/>
<polygon fill="none" stroke="#29235c" points="105.55,-1177.39 105.55,-1237.39 601.55,-1237.39 601.55,-1177.39 105.55,-1177.39"/>
<text text-anchor="start" x="116.55" y="-1197.59" font-family="Helvetica,sans-Serif" font-size="32.00" fill="#29235c">description &#160;&#160;&#160;</text>
<text text-anchor="start" x="434.13" y="-1198.59" font-family="Helvetica,sans-Serif" font-style="italic" font-size="32.00" fill="#29235c">VARCHAR</text>
<polygon fill="#e7e2dd" stroke="transparent" points="105.55,-1117.39 105.55,-1177.39 601.55,-1177.39 601.55,-1117.39 105.55,-1117.39"/>
<polygon fill="none" stroke="#29235c" points="105.55,-1117.39 105.55,-1177.39 601.55,-1177.39 601.55,-1117.39 105.55,-1117.39"/>
<text text-anchor="start" x="116.27" y="-1137.59" font-family="Helvetica,sans-Serif" font-size="32.00" fill="#29235c">discount_percentage &#160;&#160;&#160;</text>
<text text-anchor="start" x="448.44" y="-1138.59" font-family="Helvetica,sans-Serif" font-style="italic" font-size="32.00" fill="#29235c">INTEGER</text>
<polygon fill="#e7e2dd" stroke="transparent" points="105.55,-1057.39 105.55,-1117.39 601.55,-1117.39 601.55,-1057.39 105.55,-1057.39"/>
<polygon fill="none" stroke="#29235c" points="105.55,-1057.39 105.55,-1117.39 601.55,-1117.39 601.55,-1057.39 105.55,-1057.39"/>
<text text-anchor="start" x="116.55" y="-1077.59" font-family="Helvetica,sans-Serif" font-size="32.00" fill="#29235c">applied_count &#160;&#160;&#160;</text>
<text text-anchor="start" x="448.34" y="-1078.59" font-family="Helvetica,sans-Serif" font-style="italic" font-size="32.00" fill="#29235c">INTEGER</text>
<polygon fill="none" stroke="#29235c" stroke-width="2" points="104.55,-1056.39 104.55,-1418.39 602.55,-1418.39 602.55,-1056.39 104.55,-1056.39"/>
</g>
<!-- Promotion&#45;&gt;Car -->
<!-- Promotion&#45;&gt;Car -->
<g id="edge18" class="edge">
<title>Promotion:e&#45;&gt;Car:w</title>
<path fill="none" stroke="#29235c" stroke-width="3" d="M602.55,-1267.39C714.85,-1267.39 732.39,-1346.38 838.95,-1351.16"/>
<polygon fill="#29235c" stroke="#29235c" stroke-width="3" points="839.12,-1354.67 849.2,-1351.39 839.28,-1347.67 839.12,-1354.67"/>
<text text-anchor="middle" x="842.97" y="-1322.59" font-family="Helvetica,sans-Serif" font-size="32.00" fill="#29235c">*</text>
<text text-anchor="middle" x="593.66" y="-1276.99" font-family="Helvetica,sans-Serif" font-size="32.00" fill="#29235c">1</text>
</g>
<!-- Sale -->
<g id="Sale" class="node">
<title>Sale</title>
<ellipse fill="none" stroke="black" stroke-width="0" cx="353.55" cy="-257.39" rx="266.66" ry="257.27"/>
<polygon fill="#1d71b8" stroke="transparent" points="167.55,-377.39 167.55,-437.39 540.55,-437.39 540.55,-377.39 167.55,-377.39"/>
<polygon fill="none" stroke="#29235c" points="167.55,-377.39 167.55,-437.39 540.55,-437.39 540.55,-377.39 167.55,-377.39"/>
<text text-anchor="start" x="259.79" y="-398.59" font-family="Helvetica,sans-Serif" font-weight="bold" font-size="32.00" fill="#ffffff"> &#160;&#160;&#160;&#160;&#160;&#160;Sale &#160;&#160;&#160;&#160;&#160;&#160;</text>
<polygon fill="#e7e2dd" stroke="transparent" points="167.55,-317.39 167.55,-377.39 540.55,-377.39 540.55,-317.39 167.55,-317.39"/>
<polygon fill="none" stroke="#29235c" points="167.55,-317.39 167.55,-377.39 540.55,-377.39 540.55,-317.39 167.55,-317.39"/>
<text text-anchor="start" x="178.55" y="-338.59" font-family="Helvetica,sans-Serif" font-weight="bold" font-size="32.00" fill="#29235c">id</text>
<text text-anchor="start" x="203.44" y="-338.59" font-family="Helvetica,sans-Serif" font-size="32.00" fill="#29235c"> &#160;&#160;&#160;</text>
<text text-anchor="start" x="387.34" y="-338.59" font-family="Helvetica,sans-Serif" font-style="italic" font-size="32.00" fill="#29235c">INTEGER</text>
<polygon fill="#e7e2dd" stroke="transparent" points="167.55,-257.39 167.55,-317.39 540.55,-317.39 540.55,-257.39 167.55,-257.39"/>
<polygon fill="none" stroke="#29235c" points="167.55,-257.39 167.55,-317.39 540.55,-317.39 540.55,-257.39 167.55,-257.39"/>
<text text-anchor="start" x="178.55" y="-277.59" font-family="Helvetica,sans-Serif" font-size="32.00" fill="#29235c">car_id &#160;&#160;&#160;</text>
<text text-anchor="start" x="387.34" y="-278.59" font-family="Helvetica,sans-Serif" font-style="italic" font-size="32.00" fill="#29235c">INTEGER</text>
<polygon fill="#e7e2dd" stroke="transparent" points="167.55,-197.39 167.55,-257.39 540.55,-257.39 540.55,-197.39 167.55,-197.39"/>
<polygon fill="none" stroke="#29235c" points="167.55,-197.39 167.55,-257.39 540.55,-257.39 540.55,-197.39 167.55,-197.39"/>
<text text-anchor="start" x="178.15" y="-217.59" font-family="Helvetica,sans-Serif" font-size="32.00" fill="#29235c">customer_id &#160;&#160;&#160;</text>
<text text-anchor="start" x="387.44" y="-218.59" font-family="Helvetica,sans-Serif" font-style="italic" font-size="32.00" fill="#29235c">INTEGER</text>
<polygon fill="#e7e2dd" stroke="transparent" points="167.55,-137.39 167.55,-197.39 540.55,-197.39 540.55,-137.39 167.55,-137.39"/>
<polygon fill="none" stroke="#29235c" points="167.55,-137.39 167.55,-197.39 540.55,-197.39 540.55,-137.39 167.55,-137.39"/>
<text text-anchor="start" x="178.55" y="-157.59" font-family="Helvetica,sans-Serif" font-size="32.00" fill="#29235c">sale_date &#160;&#160;&#160;</text>
<text text-anchor="start" x="367.79" y="-158.59" font-family="Helvetica,sans-Serif" font-style="italic" font-size="32.00" fill="#29235c">DATETIME</text>
<polygon fill="#e7e2dd" stroke="transparent" points="167.55,-77.39 167.55,-137.39 540.55,-137.39 540.55,-77.39 167.55,-77.39"/>
<polygon fill="none" stroke="#29235c" points="167.55,-77.39 167.55,-137.39 540.55,-137.39 540.55,-77.39 167.55,-77.39"/>
<text text-anchor="start" x="178.55" y="-97.59" font-family="Helvetica,sans-Serif" font-size="32.00" fill="#29235c">sale_price &#160;&#160;&#160;</text>
<text text-anchor="start" x="387.34" y="-98.59" font-family="Helvetica,sans-Serif" font-style="italic" font-size="32.00" fill="#29235c">INTEGER</text>
<polygon fill="none" stroke="#29235c" stroke-width="2" points="166.05,-76.39 166.05,-438.39 541.05,-438.39 541.05,-76.39 166.05,-76.39"/>
</g>
<!-- Sale&#45;&gt;Car -->
<!-- Sale&#45;&gt;Car -->
<g id="edge20" class="edge">
<title>Sale:e&#45;&gt;Car:w</title>
<path fill="none" stroke="#29235c" stroke-width="3" d="M541.55,-287.39C669.68,-287.39 658.4,-404.88 707.11,-523.39 776.76,-692.86 666.73,-1327.23 839.11,-1350.72"/>
<polygon fill="#29235c" stroke="#29235c" stroke-width="3" points="838.99,-1354.22 849.2,-1351.39 839.45,-1347.23 838.99,-1354.22"/>
<text text-anchor="middle" x="855.42" y="-1360.99" font-family="Helvetica,sans-Serif" font-size="32.00" fill="#29235c">*</text>
<text text-anchor="middle" x="532.66" y="-258.59" font-family="Helvetica,sans-Serif" font-size="32.00" fill="#29235c">1</text>
</g>
<!-- Sale&#45;&gt;Customer -->
<!-- Sale&#45;&gt;Customer -->
<g id="edge22" class="edge">
<title>Sale:e&#45;&gt;Customer:w</title>
<path fill="none" stroke="#29235c" stroke-width="3" d="M541.55,-227.39C749.45,-227.39 673.43,-548.45 871.91,-559.12"/>
<polygon fill="#29235c" stroke="#29235c" stroke-width="3" points="872.11,-562.62 882.2,-559.39 872.29,-555.62 872.11,-562.62"/>
<text text-anchor="middle" x="888.42" y="-530.59" font-family="Helvetica,sans-Serif" font-size="32.00" fill="#29235c">*</text>
<text text-anchor="middle" x="532.66" y="-198.59" font-family="Helvetica,sans-Serif" font-size="32.00" fill="#29235c">1</text>
</g>
<!-- TestDrive -->
<g id="TestDrive" class="node">
<title>TestDrive</title>
<ellipse fill="none" stroke="black" stroke-width="0" cx="353.55" cy="-747.39" rx="266.66" ry="214.92"/>
<polygon fill="#1d71b8" stroke="transparent" points="167.55,-837.39 167.55,-897.39 540.55,-897.39 540.55,-837.39 167.55,-837.39"/>
<polygon fill="none" stroke="#29235c" points="167.55,-837.39 167.55,-897.39 540.55,-897.39 540.55,-837.39 167.55,-837.39"/>
<text text-anchor="start" x="223.37" y="-858.59" font-family="Helvetica,sans-Serif" font-weight="bold" font-size="32.00" fill="#ffffff"> &#160;&#160;&#160;&#160;&#160;&#160;TestDrive &#160;&#160;&#160;&#160;&#160;&#160;</text>
<polygon fill="#e7e2dd" stroke="transparent" points="167.55,-777.39 167.55,-837.39 540.55,-837.39 540.55,-777.39 167.55,-777.39"/>
<polygon fill="none" stroke="#29235c" points="167.55,-777.39 167.55,-837.39 540.55,-837.39 540.55,-777.39 167.55,-777.39"/>
<text text-anchor="start" x="178.55" y="-798.59" font-family="Helvetica,sans-Serif" font-weight="bold" font-size="32.00" fill="#29235c">id</text>
<text text-anchor="start" x="203.44" y="-798.59" font-family="Helvetica,sans-Serif" font-size="32.00" fill="#29235c"> &#160;&#160;&#160;</text>
<text text-anchor="start" x="387.34" y="-798.59" font-family="Helvetica,sans-Serif" font-style="italic" font-size="32.00" fill="#29235c">INTEGER</text>
<polygon fill="#e7e2dd" stroke="transparent" points="167.55,-717.39 167.55,-777.39 540.55,-777.39 540.55,-717.39 167.55,-717.39"/>
<polygon fill="none" stroke="#29235c" points="167.55,-717.39 167.55,-777.39 540.55,-777.39 540.55,-717.39 167.55,-717.39"/>
<text text-anchor="start" x="178.15" y="-737.59" font-family="Helvetica,sans-Serif" font-size="32.00" fill="#29235c">customer_id &#160;&#160;&#160;</text>
<text text-anchor="start" x="387.44" y="-738.59" font-family="Helvetica,sans-Serif" font-style="italic" font-size="32.00" fill="#29235c">INTEGER</text>
<polygon fill="#e7e2dd" stroke="transparent" points="167.55,-657.39 167.55,-717.39 540.55,-717.39 540.55,-657.39 167.55,-657.39"/>
<polygon fill="none" stroke="#29235c" points="167.55,-657.39 167.55,-717.39 540.55,-717.39 540.55,-657.39 167.55,-657.39"/>
<text text-anchor="start" x="178.55" y="-677.59" font-family="Helvetica,sans-Serif" font-size="32.00" fill="#29235c">car_id &#160;&#160;&#160;</text>
<text text-anchor="start" x="387.34" y="-678.59" font-family="Helvetica,sans-Serif" font-style="italic" font-size="32.00" fill="#29235c">INTEGER</text>
<polygon fill="#e7e2dd" stroke="transparent" points="167.55,-597.39 167.55,-657.39 540.55,-657.39 540.55,-597.39 167.55,-597.39"/>
<polygon fill="none" stroke="#29235c" points="167.55,-597.39 167.55,-657.39 540.55,-657.39 540.55,-597.39 167.55,-597.39"/>
<text text-anchor="start" x="178.55" y="-617.59" font-family="Helvetica,sans-Serif" font-size="32.00" fill="#29235c">date &#160;&#160;&#160;</text>
<text text-anchor="start" x="367.79" y="-618.59" font-family="Helvetica,sans-Serif" font-style="italic" font-size="32.00" fill="#29235c">DATETIME</text>
<polygon fill="none" stroke="#29235c" stroke-width="2" points="166.05,-596.39 166.05,-898.39 541.05,-898.39 541.05,-596.39 166.05,-596.39"/>
</g>
<!-- TestDrive&#45;&gt;Car -->
<!-- TestDrive&#45;&gt;Car -->
<g id="edge24" class="edge">
<title>TestDrive:e&#45;&gt;Car:w</title>
<path fill="none" stroke="#29235c" stroke-width="3" d="M541.55,-687.39C687.66,-687.39 644.51,-839.38 707.11,-971.39 782.86,-1131.12 673.32,-1342.93 838.97,-1351.14"/>
<polygon fill="#29235c" stroke="#29235c" stroke-width="3" points="839.11,-1354.64 849.2,-1351.39 839.28,-1347.65 839.11,-1354.64"/>
<text text-anchor="middle" x="855.42" y="-1322.59" font-family="Helvetica,sans-Serif" font-size="32.00" fill="#29235c">*</text>
<text text-anchor="middle" x="532.66" y="-658.59" font-family="Helvetica,sans-Serif" font-size="32.00" fill="#29235c">1</text>
</g>
<!-- TestDrive&#45;&gt;Customer -->
<!-- TestDrive&#45;&gt;Customer -->
<g id="edge26" class="edge">
<title>TestDrive:e&#45;&gt;Customer:w</title>
<path fill="none" stroke="#29235c" stroke-width="3" d="M541.55,-747.39C710.93,-747.39 709.41,-567.02 871.78,-559.62"/>
<polygon fill="#29235c" stroke="#29235c" stroke-width="3" points="872.28,-563.11 882.2,-559.39 872.12,-556.11 872.28,-563.11"/>
<text text-anchor="middle" x="888.42" y="-568.99" font-family="Helvetica,sans-Serif" font-size="32.00" fill="#29235c">*</text>
<text text-anchor="middle" x="532.66" y="-718.59" font-family="Helvetica,sans-Serif" font-size="32.00" fill="#29235c">1</text>
</g>
</g>
</svg>
